<mxfile host="app.diagrams.net" modified="2024-03-15T15:16:43.451Z" agent="Mozilla/5.0 (Windows NT 10.0; Win64; x64; rv:123.0) Gecko/20100101 Firefox/123.0" etag="0ykdw74YIJLBEprJ18t4" version="24.0.5" type="github">
  <diagram name="Page-1" id="GdwxHHWVY4ONJSW4Utfn">
    <mxGraphModel dx="1235" dy="634" grid="1" gridSize="10" guides="1" tooltips="1" connect="1" arrows="1" fold="1" page="1" pageScale="1" pageWidth="1169" pageHeight="1654" math="0" shadow="0">
      <root>
        <mxCell id="0" />
        <mxCell id="1" parent="0" />
        <mxCell id="uvZQzfDUZV-FZ5usibHW-2" value="VPC&lt;br&gt;10.0.0.0/26" style="points=[[0,0],[0.25,0],[0.5,0],[0.75,0],[1,0],[1,0.25],[1,0.5],[1,0.75],[1,1],[0.75,1],[0.5,1],[0.25,1],[0,1],[0,0.75],[0,0.5],[0,0.25]];outlineConnect=0;gradientColor=none;html=1;whiteSpace=wrap;fontSize=12;fontStyle=0;container=1;pointerEvents=0;collapsible=0;recursiveResize=0;shape=mxgraph.aws4.group;grIcon=mxgraph.aws4.group_vpc2;strokeColor=#8C4FFF;fillColor=none;verticalAlign=top;align=left;spacingLeft=30;fontColor=#AAB7B8;dashed=0;" parent="1" vertex="1">
          <mxGeometry x="10" y="40" width="850" height="440" as="geometry" />
        </mxCell>
        <object label="Private subnet 1&lt;br&gt;10.0.0.16/28" placeholders="1" sdfs="dfgdfg" id="uvZQzfDUZV-FZ5usibHW-3">
          <mxCell style="points=[[0,0],[0.25,0],[0.5,0],[0.75,0],[1,0],[1,0.25],[1,0.5],[1,0.75],[1,1],[0.75,1],[0.5,1],[0.25,1],[0,1],[0,0.75],[0,0.5],[0,0.25]];outlineConnect=0;gradientColor=none;html=1;whiteSpace=wrap;fontSize=12;fontStyle=0;container=1;pointerEvents=0;collapsible=0;recursiveResize=0;shape=mxgraph.aws4.group;grIcon=mxgraph.aws4.group_security_group;grStroke=0;strokeColor=#00A4A6;fillColor=#E6F6F7;verticalAlign=top;align=left;spacingLeft=30;fontColor=#147EBA;dashed=0;" parent="uvZQzfDUZV-FZ5usibHW-2" vertex="1">
            <mxGeometry x="55" y="71" width="160" height="150" as="geometry" />
          </mxCell>
        </object>
        <object label="" id="uvZQzfDUZV-FZ5usibHW-31">
          <mxCell style="sketch=0;points=[[0,0,0],[0.25,0,0],[0.5,0,0],[0.75,0,0],[1,0,0],[0,1,0],[0.25,1,0],[0.5,1,0],[0.75,1,0],[1,1,0],[0,0.25,0],[0,0.5,0],[0,0.75,0],[1,0.25,0],[1,0.5,0],[1,0.75,0]];outlineConnect=0;fontColor=#232F3E;fillColor=#ED7100;strokeColor=#ffffff;dashed=0;verticalLabelPosition=bottom;verticalAlign=top;align=center;html=1;fontSize=12;fontStyle=0;aspect=fixed;shape=mxgraph.aws4.resourceIcon;resIcon=mxgraph.aws4.ec2;" parent="uvZQzfDUZV-FZ5usibHW-3" vertex="1">
            <mxGeometry x="24" y="60" width="60" height="60" as="geometry" />
          </mxCell>
        </object>
        <mxCell id="uvZQzfDUZV-FZ5usibHW-4" value="Private subnet 2&lt;br&gt;10.0.0.32/28" style="points=[[0,0],[0.25,0],[0.5,0],[0.75,0],[1,0],[1,0.25],[1,0.5],[1,0.75],[1,1],[0.75,1],[0.5,1],[0.25,1],[0,1],[0,0.75],[0,0.5],[0,0.25]];outlineConnect=0;gradientColor=none;html=1;whiteSpace=wrap;fontSize=12;fontStyle=0;container=1;pointerEvents=0;collapsible=0;recursiveResize=0;shape=mxgraph.aws4.group;grIcon=mxgraph.aws4.group_security_group;grStroke=0;strokeColor=#00A4A6;fillColor=#E6F6F7;verticalAlign=top;align=left;spacingLeft=30;fontColor=#147EBA;dashed=0;" parent="uvZQzfDUZV-FZ5usibHW-2" vertex="1">
          <mxGeometry x="55" y="280" width="160" height="140" as="geometry" />
        </mxCell>
        <mxCell id="uvZQzfDUZV-FZ5usibHW-33" value="Security group" style="fillColor=none;strokeColor=#DD3522;verticalAlign=top;fontStyle=0;fontColor=#DD3522;whiteSpace=wrap;html=1;" parent="uvZQzfDUZV-FZ5usibHW-4" vertex="1">
          <mxGeometry x="12.5" y="-173" width="137.5" height="294" as="geometry" />
        </mxCell>
        <mxCell id="uvZQzfDUZV-FZ5usibHW-32" value="" style="sketch=0;points=[[0,0,0],[0.25,0,0],[0.5,0,0],[0.75,0,0],[1,0,0],[0,1,0],[0.25,1,0],[0.5,1,0],[0.75,1,0],[1,1,0],[0,0.25,0],[0,0.5,0],[0,0.75,0],[1,0.25,0],[1,0.5,0],[1,0.75,0]];outlineConnect=0;fontColor=#232F3E;fillColor=#ED7100;strokeColor=#ffffff;dashed=0;verticalLabelPosition=bottom;verticalAlign=top;align=center;html=1;fontSize=12;fontStyle=0;aspect=fixed;shape=mxgraph.aws4.resourceIcon;resIcon=mxgraph.aws4.ec2;" parent="uvZQzfDUZV-FZ5usibHW-4" vertex="1">
          <mxGeometry x="26" y="43" width="60" height="60" as="geometry" />
        </mxCell>
        <mxCell id="uvZQzfDUZV-FZ5usibHW-40" value="" style="edgeStyle=orthogonalEdgeStyle;rounded=0;orthogonalLoop=1;jettySize=auto;html=1;" parent="uvZQzfDUZV-FZ5usibHW-4" source="uvZQzfDUZV-FZ5usibHW-35" edge="1">
          <mxGeometry relative="1" as="geometry">
            <mxPoint x="84" y="53" as="targetPoint" />
          </mxGeometry>
        </mxCell>
        <mxCell id="uvZQzfDUZV-FZ5usibHW-35" value="" style="sketch=0;outlineConnect=0;fontColor=#232F3E;gradientColor=none;fillColor=#DD344C;strokeColor=none;dashed=0;verticalLabelPosition=bottom;verticalAlign=top;align=center;html=1;fontSize=12;fontStyle=0;aspect=fixed;pointerEvents=1;shape=mxgraph.aws4.role;" parent="uvZQzfDUZV-FZ5usibHW-4" vertex="1">
          <mxGeometry x="104" y="43" width="35.45" height="20" as="geometry" />
        </mxCell>
        <mxCell id="Y4bff-1Hk1Yyrk_qSNBb-4" value="" style="edgeStyle=orthogonalEdgeStyle;rounded=0;orthogonalLoop=1;jettySize=auto;html=1;entryX=0.399;entryY=-0.032;entryDx=0;entryDy=0;entryPerimeter=0;" edge="1" parent="uvZQzfDUZV-FZ5usibHW-4" source="Y4bff-1Hk1Yyrk_qSNBb-2" target="uvZQzfDUZV-FZ5usibHW-32">
          <mxGeometry relative="1" as="geometry" />
        </mxCell>
        <mxCell id="Y4bff-1Hk1Yyrk_qSNBb-2" value="" style="sketch=0;outlineConnect=0;fontColor=#232F3E;gradientColor=none;fillColor=#ED7100;strokeColor=none;dashed=0;verticalLabelPosition=bottom;verticalAlign=top;align=center;html=1;fontSize=12;fontStyle=0;aspect=fixed;pointerEvents=1;shape=mxgraph.aws4.auto_scaling2;" vertex="1" parent="uvZQzfDUZV-FZ5usibHW-4">
          <mxGeometry x="26" y="-59" width="48" height="48" as="geometry" />
        </mxCell>
        <mxCell id="uvZQzfDUZV-FZ5usibHW-8" value="Public subnet&lt;br&gt;10.0.0.0/28" style="points=[[0,0],[0.25,0],[0.5,0],[0.75,0],[1,0],[1,0.25],[1,0.5],[1,0.75],[1,1],[0.75,1],[0.5,1],[0.25,1],[0,1],[0,0.75],[0,0.5],[0,0.25]];outlineConnect=0;gradientColor=none;html=1;whiteSpace=wrap;fontSize=12;fontStyle=0;container=1;pointerEvents=0;collapsible=0;recursiveResize=0;shape=mxgraph.aws4.group;grIcon=mxgraph.aws4.group_security_group;grStroke=0;strokeColor=#7AA116;fillColor=#F2F6E8;verticalAlign=top;align=left;spacingLeft=30;fontColor=#248814;dashed=0;" parent="uvZQzfDUZV-FZ5usibHW-2" vertex="1">
          <mxGeometry x="375" y="132" width="250" height="220" as="geometry" />
        </mxCell>
        <mxCell id="uvZQzfDUZV-FZ5usibHW-19" value="NAT gateway&lt;br&gt;Public IP 3.78.51.92&lt;br&gt;Private IP 10.0.0.5" style="sketch=0;outlineConnect=0;fontColor=#232F3E;gradientColor=none;strokeColor=#232F3E;fillColor=#ffffff;dashed=0;verticalLabelPosition=bottom;verticalAlign=top;align=center;html=1;fontSize=12;fontStyle=0;aspect=fixed;shape=mxgraph.aws4.resourceIcon;resIcon=mxgraph.aws4.nat_gateway;" parent="uvZQzfDUZV-FZ5usibHW-8" vertex="1">
          <mxGeometry x="39" y="76.5" width="70" height="70" as="geometry" />
        </mxCell>
        <mxCell id="uvZQzfDUZV-FZ5usibHW-23" value="" style="edgeStyle=orthogonalEdgeStyle;rounded=0;orthogonalLoop=1;jettySize=auto;html=1;" parent="uvZQzfDUZV-FZ5usibHW-2" edge="1">
          <mxGeometry relative="1" as="geometry">
            <mxPoint x="283" y="241" as="sourcePoint" />
            <mxPoint x="393" y="243" as="targetPoint" />
            <Array as="points">
              <mxPoint x="283" y="243" />
            </Array>
          </mxGeometry>
        </mxCell>
        <mxCell id="uvZQzfDUZV-FZ5usibHW-9" value="Route table for &lt;br&gt;private subnets" style="sketch=0;outlineConnect=0;fontColor=#232F3E;gradientColor=none;strokeColor=#232F3E;fillColor=#ffffff;dashed=0;verticalLabelPosition=bottom;verticalAlign=top;align=center;html=1;fontSize=12;fontStyle=0;aspect=fixed;shape=mxgraph.aws4.resourceIcon;resIcon=mxgraph.aws4.route_table;" parent="uvZQzfDUZV-FZ5usibHW-2" vertex="1">
          <mxGeometry x="254" y="205" width="77" height="77" as="geometry" />
        </mxCell>
        <mxCell id="uvZQzfDUZV-FZ5usibHW-29" style="edgeStyle=orthogonalEdgeStyle;rounded=0;orthogonalLoop=1;jettySize=auto;html=1;" parent="uvZQzfDUZV-FZ5usibHW-2" edge="1">
          <mxGeometry relative="1" as="geometry">
            <mxPoint x="737" y="242" as="sourcePoint" />
            <mxPoint x="774" y="242" as="targetPoint" />
          </mxGeometry>
        </mxCell>
        <mxCell id="uvZQzfDUZV-FZ5usibHW-25" value="Route table for &lt;br&gt;public subnet" style="sketch=0;outlineConnect=0;fontColor=#232F3E;gradientColor=none;strokeColor=#232F3E;fillColor=#ffffff;dashed=0;verticalLabelPosition=bottom;verticalAlign=top;align=center;html=1;fontSize=12;fontStyle=0;aspect=fixed;shape=mxgraph.aws4.resourceIcon;resIcon=mxgraph.aws4.route_table;" parent="uvZQzfDUZV-FZ5usibHW-2" vertex="1">
          <mxGeometry x="657" y="200" width="80" height="80" as="geometry" />
        </mxCell>
        <mxCell id="uvZQzfDUZV-FZ5usibHW-27" style="edgeStyle=orthogonalEdgeStyle;rounded=0;orthogonalLoop=1;jettySize=auto;html=1;entryX=0;entryY=0.55;entryDx=0;entryDy=0;entryPerimeter=0;" parent="uvZQzfDUZV-FZ5usibHW-2" source="uvZQzfDUZV-FZ5usibHW-19" target="uvZQzfDUZV-FZ5usibHW-25" edge="1">
          <mxGeometry relative="1" as="geometry" />
        </mxCell>
        <mxCell id="uvZQzfDUZV-FZ5usibHW-30" value="Internet&#xa;gateway" style="sketch=0;outlineConnect=0;fontColor=#232F3E;gradientColor=none;strokeColor=#232F3E;fillColor=#ffffff;dashed=0;verticalLabelPosition=bottom;verticalAlign=top;align=center;html=1;fontSize=12;fontStyle=0;aspect=fixed;shape=mxgraph.aws4.resourceIcon;resIcon=mxgraph.aws4.internet_gateway;" parent="uvZQzfDUZV-FZ5usibHW-2" vertex="1">
          <mxGeometry x="775" y="210" width="60" height="60" as="geometry" />
        </mxCell>
        <mxCell id="uvZQzfDUZV-FZ5usibHW-37" value="" style="sketch=0;outlineConnect=0;fontColor=#232F3E;gradientColor=none;fillColor=#DD344C;strokeColor=none;dashed=0;verticalLabelPosition=bottom;verticalAlign=top;align=center;html=1;fontSize=12;fontStyle=0;aspect=fixed;pointerEvents=1;shape=mxgraph.aws4.role;" parent="uvZQzfDUZV-FZ5usibHW-2" vertex="1">
          <mxGeometry x="878" y="80" width="45.45" height="25.64" as="geometry" />
        </mxCell>
        <mxCell id="uvZQzfDUZV-FZ5usibHW-38" value="EC2 instances need a IAM role attached, with the policy &quot;&lt;b&gt;AmazonSSMManagedInstanceCore&lt;/b&gt;&quot;" style="text;html=1;align=center;verticalAlign=middle;whiteSpace=wrap;rounded=0;" parent="uvZQzfDUZV-FZ5usibHW-2" vertex="1">
          <mxGeometry x="938" y="75" width="220" height="55" as="geometry" />
        </mxCell>
        <mxCell id="uvZQzfDUZV-FZ5usibHW-41" value="Security group" style="fillColor=none;strokeColor=#DD3522;verticalAlign=top;fontStyle=0;fontColor=#DD3522;whiteSpace=wrap;html=1;" parent="uvZQzfDUZV-FZ5usibHW-2" vertex="1">
          <mxGeometry x="949" y="140" width="130" height="130" as="geometry" />
        </mxCell>
        <mxCell id="uvZQzfDUZV-FZ5usibHW-42" value="Inbound: Allow all ???&lt;br&gt;Outbound: allow all" style="text;html=1;align=center;verticalAlign=middle;whiteSpace=wrap;rounded=0;" parent="uvZQzfDUZV-FZ5usibHW-2" vertex="1">
          <mxGeometry x="949" y="170" width="131" height="40" as="geometry" />
        </mxCell>
        <mxCell id="uvZQzfDUZV-FZ5usibHW-43" value="" style="sketch=0;points=[[0,0,0],[0.25,0,0],[0.5,0,0],[0.75,0,0],[1,0,0],[0,1,0],[0.25,1,0],[0.5,1,0],[0.75,1,0],[1,1,0],[0,0.25,0],[0,0.5,0],[0,0.75,0],[1,0.25,0],[1,0.5,0],[1,0.75,0]];outlineConnect=0;fontColor=#232F3E;fillColor=#ED7100;strokeColor=#ffffff;dashed=0;verticalLabelPosition=bottom;verticalAlign=top;align=center;html=1;fontSize=12;fontStyle=0;aspect=fixed;shape=mxgraph.aws4.resourceIcon;resIcon=mxgraph.aws4.ec2;" parent="uvZQzfDUZV-FZ5usibHW-2" vertex="1">
          <mxGeometry x="874.22" y="10" width="53" height="53" as="geometry" />
        </mxCell>
        <mxCell id="uvZQzfDUZV-FZ5usibHW-44" value="For the EC2 instance you can choose an &lt;b&gt;AMI image that already has the SSM agent installed&lt;/b&gt;" style="text;html=1;align=center;verticalAlign=middle;whiteSpace=wrap;rounded=0;" parent="uvZQzfDUZV-FZ5usibHW-2" vertex="1">
          <mxGeometry x="937" y="10" width="220" height="55" as="geometry" />
        </mxCell>
        <mxCell id="Y4bff-1Hk1Yyrk_qSNBb-3" value="" style="edgeStyle=orthogonalEdgeStyle;rounded=0;orthogonalLoop=1;jettySize=auto;html=1;" edge="1" parent="uvZQzfDUZV-FZ5usibHW-2" source="Y4bff-1Hk1Yyrk_qSNBb-2">
          <mxGeometry relative="1" as="geometry">
            <mxPoint x="105" y="191" as="targetPoint" />
          </mxGeometry>
        </mxCell>
        <mxCell id="Y4bff-1Hk1Yyrk_qSNBb-6" style="edgeStyle=orthogonalEdgeStyle;rounded=0;orthogonalLoop=1;jettySize=auto;html=1;" edge="1" parent="uvZQzfDUZV-FZ5usibHW-2" source="Y4bff-1Hk1Yyrk_qSNBb-2">
          <mxGeometry relative="1" as="geometry">
            <mxPoint x="260" y="245" as="targetPoint" />
            <Array as="points">
              <mxPoint x="260" y="245" />
            </Array>
          </mxGeometry>
        </mxCell>
        <mxCell id="Y4bff-1Hk1Yyrk_qSNBb-9" value="&lt;h1 style=&quot;margin-top: 0px;&quot;&gt;Autoscaling group in private subnets&lt;br&gt;&lt;/h1&gt;&lt;p&gt;&lt;br&gt;&lt;/p&gt;" style="text;html=1;whiteSpace=wrap;overflow=hidden;rounded=0;" vertex="1" parent="uvZQzfDUZV-FZ5usibHW-2">
          <mxGeometry x="280" y="21" width="440" height="50" as="geometry" />
        </mxCell>
        <mxCell id="uvZQzfDUZV-FZ5usibHW-39" value="" style="edgeStyle=orthogonalEdgeStyle;rounded=0;orthogonalLoop=1;jettySize=auto;html=1;" parent="1" source="uvZQzfDUZV-FZ5usibHW-34" edge="1">
          <mxGeometry relative="1" as="geometry">
            <mxPoint x="148" y="184" as="targetPoint" />
            <Array as="points" />
          </mxGeometry>
        </mxCell>
        <mxCell id="uvZQzfDUZV-FZ5usibHW-34" value="" style="sketch=0;outlineConnect=0;fontColor=#232F3E;gradientColor=none;fillColor=#DD344C;strokeColor=none;dashed=0;verticalLabelPosition=bottom;verticalAlign=top;align=center;html=1;fontSize=12;fontStyle=0;aspect=fixed;pointerEvents=1;shape=mxgraph.aws4.role;" parent="1" vertex="1">
          <mxGeometry x="168.05" y="174" width="35.45" height="20" as="geometry" />
        </mxCell>
        <mxCell id="Y4bff-1Hk1Yyrk_qSNBb-10" value="VPC&lt;br&gt;10.0.0.0/26" style="points=[[0,0],[0.25,0],[0.5,0],[0.75,0],[1,0],[1,0.25],[1,0.5],[1,0.75],[1,1],[0.75,1],[0.5,1],[0.25,1],[0,1],[0,0.75],[0,0.5],[0,0.25]];outlineConnect=0;gradientColor=none;html=1;whiteSpace=wrap;fontSize=12;fontStyle=0;container=1;pointerEvents=0;collapsible=0;recursiveResize=0;shape=mxgraph.aws4.group;grIcon=mxgraph.aws4.group_vpc2;strokeColor=#8C4FFF;fillColor=none;verticalAlign=top;align=left;spacingLeft=30;fontColor=#AAB7B8;dashed=0;" vertex="1" parent="1">
          <mxGeometry x="10" y="40" width="850" height="440" as="geometry" />
        </mxCell>
        <object label="Private subnet 1&lt;br&gt;10.0.0.16/28" placeholders="1" sdfs="dfgdfg" id="Y4bff-1Hk1Yyrk_qSNBb-11">
          <mxCell style="points=[[0,0],[0.25,0],[0.5,0],[0.75,0],[1,0],[1,0.25],[1,0.5],[1,0.75],[1,1],[0.75,1],[0.5,1],[0.25,1],[0,1],[0,0.75],[0,0.5],[0,0.25]];outlineConnect=0;gradientColor=none;html=1;whiteSpace=wrap;fontSize=12;fontStyle=0;container=1;pointerEvents=0;collapsible=0;recursiveResize=0;shape=mxgraph.aws4.group;grIcon=mxgraph.aws4.group_security_group;grStroke=0;strokeColor=#00A4A6;fillColor=#E6F6F7;verticalAlign=top;align=left;spacingLeft=30;fontColor=#147EBA;dashed=0;" vertex="1" parent="Y4bff-1Hk1Yyrk_qSNBb-10">
            <mxGeometry x="14" y="80" width="160" height="150" as="geometry" />
          </mxCell>
        </object>
        <object label="" id="Y4bff-1Hk1Yyrk_qSNBb-12">
          <mxCell style="sketch=0;points=[[0,0,0],[0.25,0,0],[0.5,0,0],[0.75,0,0],[1,0,0],[0,1,0],[0.25,1,0],[0.5,1,0],[0.75,1,0],[1,1,0],[0,0.25,0],[0,0.5,0],[0,0.75,0],[1,0.25,0],[1,0.5,0],[1,0.75,0]];outlineConnect=0;fontColor=#232F3E;fillColor=#ED7100;strokeColor=#ffffff;dashed=0;verticalLabelPosition=bottom;verticalAlign=top;align=center;html=1;fontSize=12;fontStyle=0;aspect=fixed;shape=mxgraph.aws4.resourceIcon;resIcon=mxgraph.aws4.ec2;" vertex="1" parent="Y4bff-1Hk1Yyrk_qSNBb-11">
            <mxGeometry x="24" y="60" width="60" height="60" as="geometry" />
          </mxCell>
        </object>
        <mxCell id="Y4bff-1Hk1Yyrk_qSNBb-13" value="Public subnet&lt;br&gt;10.0.0.0/28" style="points=[[0,0],[0.25,0],[0.5,0],[0.75,0],[1,0],[1,0.25],[1,0.5],[1,0.75],[1,1],[0.75,1],[0.5,1],[0.25,1],[0,1],[0,0.75],[0,0.5],[0,0.25]];outlineConnect=0;gradientColor=none;html=1;whiteSpace=wrap;fontSize=12;fontStyle=0;container=1;pointerEvents=0;collapsible=0;recursiveResize=0;shape=mxgraph.aws4.group;grIcon=mxgraph.aws4.group_security_group;grStroke=0;strokeColor=#7AA116;fillColor=#F2F6E8;verticalAlign=top;align=left;spacingLeft=30;fontColor=#248814;dashed=0;" vertex="1" parent="Y4bff-1Hk1Yyrk_qSNBb-10">
          <mxGeometry x="375" y="132" width="250" height="220" as="geometry" />
        </mxCell>
        <mxCell id="Y4bff-1Hk1Yyrk_qSNBb-14" value="NAT gateway&lt;br&gt;Public IP 3.78.51.92&lt;br&gt;Private IP 10.0.0.5" style="sketch=0;outlineConnect=0;fontColor=#232F3E;gradientColor=none;strokeColor=#232F3E;fillColor=#ffffff;dashed=0;verticalLabelPosition=bottom;verticalAlign=top;align=center;html=1;fontSize=12;fontStyle=0;aspect=fixed;shape=mxgraph.aws4.resourceIcon;resIcon=mxgraph.aws4.nat_gateway;" vertex="1" parent="Y4bff-1Hk1Yyrk_qSNBb-13">
          <mxGeometry x="39" y="76.5" width="70" height="70" as="geometry" />
        </mxCell>
        <mxCell id="Y4bff-1Hk1Yyrk_qSNBb-15" style="edgeStyle=orthogonalEdgeStyle;rounded=0;orthogonalLoop=1;jettySize=auto;html=1;" edge="1" parent="Y4bff-1Hk1Yyrk_qSNBb-10" source="Y4bff-1Hk1Yyrk_qSNBb-11" target="Y4bff-1Hk1Yyrk_qSNBb-18">
          <mxGeometry relative="1" as="geometry">
            <Array as="points">
              <mxPoint x="214" y="145" />
              <mxPoint x="214" y="243" />
            </Array>
          </mxGeometry>
        </mxCell>
        <mxCell id="Y4bff-1Hk1Yyrk_qSNBb-16" style="edgeStyle=orthogonalEdgeStyle;rounded=0;orthogonalLoop=1;jettySize=auto;html=1;" edge="1" parent="Y4bff-1Hk1Yyrk_qSNBb-10" target="Y4bff-1Hk1Yyrk_qSNBb-18">
          <mxGeometry relative="1" as="geometry">
            <mxPoint x="174" y="345" as="sourcePoint" />
            <Array as="points">
              <mxPoint x="214" y="345" />
              <mxPoint x="214" y="243" />
            </Array>
          </mxGeometry>
        </mxCell>
        <mxCell id="Y4bff-1Hk1Yyrk_qSNBb-17" value="" style="edgeStyle=orthogonalEdgeStyle;rounded=0;orthogonalLoop=1;jettySize=auto;html=1;" edge="1" parent="Y4bff-1Hk1Yyrk_qSNBb-10">
          <mxGeometry relative="1" as="geometry">
            <mxPoint x="283" y="241" as="sourcePoint" />
            <mxPoint x="393" y="243" as="targetPoint" />
            <Array as="points">
              <mxPoint x="283" y="243" />
            </Array>
          </mxGeometry>
        </mxCell>
        <mxCell id="Y4bff-1Hk1Yyrk_qSNBb-18" value="Route table for &lt;br&gt;private subnets" style="sketch=0;outlineConnect=0;fontColor=#232F3E;gradientColor=none;strokeColor=#232F3E;fillColor=#ffffff;dashed=0;verticalLabelPosition=bottom;verticalAlign=top;align=center;html=1;fontSize=12;fontStyle=0;aspect=fixed;shape=mxgraph.aws4.resourceIcon;resIcon=mxgraph.aws4.route_table;" vertex="1" parent="Y4bff-1Hk1Yyrk_qSNBb-10">
          <mxGeometry x="254" y="203" width="77" height="77" as="geometry" />
        </mxCell>
        <mxCell id="Y4bff-1Hk1Yyrk_qSNBb-19" style="edgeStyle=orthogonalEdgeStyle;rounded=0;orthogonalLoop=1;jettySize=auto;html=1;" edge="1" parent="Y4bff-1Hk1Yyrk_qSNBb-10">
          <mxGeometry relative="1" as="geometry">
            <mxPoint x="737" y="242" as="sourcePoint" />
            <mxPoint x="774" y="242" as="targetPoint" />
          </mxGeometry>
        </mxCell>
        <mxCell id="Y4bff-1Hk1Yyrk_qSNBb-20" value="Route table for &lt;br&gt;public subnet" style="sketch=0;outlineConnect=0;fontColor=#232F3E;gradientColor=none;strokeColor=#232F3E;fillColor=#ffffff;dashed=0;verticalLabelPosition=bottom;verticalAlign=top;align=center;html=1;fontSize=12;fontStyle=0;aspect=fixed;shape=mxgraph.aws4.resourceIcon;resIcon=mxgraph.aws4.route_table;" vertex="1" parent="Y4bff-1Hk1Yyrk_qSNBb-10">
          <mxGeometry x="657" y="200" width="80" height="80" as="geometry" />
        </mxCell>
        <mxCell id="Y4bff-1Hk1Yyrk_qSNBb-21" style="edgeStyle=orthogonalEdgeStyle;rounded=0;orthogonalLoop=1;jettySize=auto;html=1;entryX=0;entryY=0.55;entryDx=0;entryDy=0;entryPerimeter=0;" edge="1" parent="Y4bff-1Hk1Yyrk_qSNBb-10" source="Y4bff-1Hk1Yyrk_qSNBb-14" target="Y4bff-1Hk1Yyrk_qSNBb-20">
          <mxGeometry relative="1" as="geometry" />
        </mxCell>
        <mxCell id="Y4bff-1Hk1Yyrk_qSNBb-22" value="Internet&#xa;gateway" style="sketch=0;outlineConnect=0;fontColor=#232F3E;gradientColor=none;strokeColor=#232F3E;fillColor=#ffffff;dashed=0;verticalLabelPosition=bottom;verticalAlign=top;align=center;html=1;fontSize=12;fontStyle=0;aspect=fixed;shape=mxgraph.aws4.resourceIcon;resIcon=mxgraph.aws4.internet_gateway;" vertex="1" parent="Y4bff-1Hk1Yyrk_qSNBb-10">
          <mxGeometry x="775" y="210" width="60" height="60" as="geometry" />
        </mxCell>
        <mxCell id="Y4bff-1Hk1Yyrk_qSNBb-23" value="" style="sketch=0;outlineConnect=0;fontColor=#232F3E;gradientColor=none;fillColor=#DD344C;strokeColor=none;dashed=0;verticalLabelPosition=bottom;verticalAlign=top;align=center;html=1;fontSize=12;fontStyle=0;aspect=fixed;pointerEvents=1;shape=mxgraph.aws4.role;" vertex="1" parent="Y4bff-1Hk1Yyrk_qSNBb-10">
          <mxGeometry x="878" y="80" width="45.45" height="25.64" as="geometry" />
        </mxCell>
        <mxCell id="Y4bff-1Hk1Yyrk_qSNBb-24" value="EC2 instances need a IAM role attached, with the policy &quot;&lt;b&gt;AmazonSSMManagedInstanceCore&lt;/b&gt;&quot;" style="text;html=1;align=center;verticalAlign=middle;whiteSpace=wrap;rounded=0;" vertex="1" parent="Y4bff-1Hk1Yyrk_qSNBb-10">
          <mxGeometry x="938" y="75" width="220" height="55" as="geometry" />
        </mxCell>
        <mxCell id="Y4bff-1Hk1Yyrk_qSNBb-25" value="Private subnet 2&lt;br&gt;10.0.0.32/28" style="points=[[0,0],[0.25,0],[0.5,0],[0.75,0],[1,0],[1,0.25],[1,0.5],[1,0.75],[1,1],[0.75,1],[0.5,1],[0.25,1],[0,1],[0,0.75],[0,0.5],[0,0.25]];outlineConnect=0;gradientColor=none;html=1;whiteSpace=wrap;fontSize=12;fontStyle=0;container=1;pointerEvents=0;collapsible=0;recursiveResize=0;shape=mxgraph.aws4.group;grIcon=mxgraph.aws4.group_security_group;grStroke=0;strokeColor=#00A4A6;fillColor=#E6F6F7;verticalAlign=top;align=left;spacingLeft=30;fontColor=#147EBA;dashed=0;" vertex="1" parent="Y4bff-1Hk1Yyrk_qSNBb-10">
          <mxGeometry x="14" y="280" width="160" height="140" as="geometry" />
        </mxCell>
        <mxCell id="Y4bff-1Hk1Yyrk_qSNBb-26" value="Security group" style="fillColor=none;strokeColor=#DD3522;verticalAlign=top;fontStyle=0;fontColor=#DD3522;whiteSpace=wrap;html=1;" vertex="1" parent="Y4bff-1Hk1Yyrk_qSNBb-25">
          <mxGeometry x="12.5" y="-164" width="137.5" height="294" as="geometry" />
        </mxCell>
        <mxCell id="Y4bff-1Hk1Yyrk_qSNBb-27" value="" style="sketch=0;points=[[0,0,0],[0.25,0,0],[0.5,0,0],[0.75,0,0],[1,0,0],[0,1,0],[0.25,1,0],[0.5,1,0],[0.75,1,0],[1,1,0],[0,0.25,0],[0,0.5,0],[0,0.75,0],[1,0.25,0],[1,0.5,0],[1,0.75,0]];outlineConnect=0;fontColor=#232F3E;fillColor=#ED7100;strokeColor=#ffffff;dashed=0;verticalLabelPosition=bottom;verticalAlign=top;align=center;html=1;fontSize=12;fontStyle=0;aspect=fixed;shape=mxgraph.aws4.resourceIcon;resIcon=mxgraph.aws4.ec2;" vertex="1" parent="Y4bff-1Hk1Yyrk_qSNBb-25">
          <mxGeometry x="26" y="52" width="60" height="60" as="geometry" />
        </mxCell>
        <mxCell id="Y4bff-1Hk1Yyrk_qSNBb-28" value="" style="edgeStyle=orthogonalEdgeStyle;rounded=0;orthogonalLoop=1;jettySize=auto;html=1;" edge="1" parent="Y4bff-1Hk1Yyrk_qSNBb-25" source="Y4bff-1Hk1Yyrk_qSNBb-29">
          <mxGeometry relative="1" as="geometry">
            <mxPoint x="84" y="62" as="targetPoint" />
          </mxGeometry>
        </mxCell>
        <mxCell id="Y4bff-1Hk1Yyrk_qSNBb-29" value="" style="sketch=0;outlineConnect=0;fontColor=#232F3E;gradientColor=none;fillColor=#DD344C;strokeColor=none;dashed=0;verticalLabelPosition=bottom;verticalAlign=top;align=center;html=1;fontSize=12;fontStyle=0;aspect=fixed;pointerEvents=1;shape=mxgraph.aws4.role;" vertex="1" parent="Y4bff-1Hk1Yyrk_qSNBb-25">
          <mxGeometry x="104" y="52" width="35.45" height="20" as="geometry" />
        </mxCell>
        <mxCell id="Y4bff-1Hk1Yyrk_qSNBb-30" value="Security group" style="fillColor=none;strokeColor=#DD3522;verticalAlign=top;fontStyle=0;fontColor=#DD3522;whiteSpace=wrap;html=1;" vertex="1" parent="Y4bff-1Hk1Yyrk_qSNBb-10">
          <mxGeometry x="949" y="140" width="130" height="130" as="geometry" />
        </mxCell>
        <mxCell id="Y4bff-1Hk1Yyrk_qSNBb-31" value="Inbound: Allow all ???&lt;br&gt;Outbound: allow all" style="text;html=1;align=center;verticalAlign=middle;whiteSpace=wrap;rounded=0;" vertex="1" parent="Y4bff-1Hk1Yyrk_qSNBb-10">
          <mxGeometry x="949" y="170" width="131" height="40" as="geometry" />
        </mxCell>
        <mxCell id="Y4bff-1Hk1Yyrk_qSNBb-32" value="" style="sketch=0;points=[[0,0,0],[0.25,0,0],[0.5,0,0],[0.75,0,0],[1,0,0],[0,1,0],[0.25,1,0],[0.5,1,0],[0.75,1,0],[1,1,0],[0,0.25,0],[0,0.5,0],[0,0.75,0],[1,0.25,0],[1,0.5,0],[1,0.75,0]];outlineConnect=0;fontColor=#232F3E;fillColor=#ED7100;strokeColor=#ffffff;dashed=0;verticalLabelPosition=bottom;verticalAlign=top;align=center;html=1;fontSize=12;fontStyle=0;aspect=fixed;shape=mxgraph.aws4.resourceIcon;resIcon=mxgraph.aws4.ec2;" vertex="1" parent="Y4bff-1Hk1Yyrk_qSNBb-10">
          <mxGeometry x="874.22" y="10" width="53" height="53" as="geometry" />
        </mxCell>
        <mxCell id="Y4bff-1Hk1Yyrk_qSNBb-33" value="For the EC2 instance you can choose an &lt;b&gt;AMI image that already has the SSM agent installed&lt;/b&gt;" style="text;html=1;align=center;verticalAlign=middle;whiteSpace=wrap;rounded=0;" vertex="1" parent="Y4bff-1Hk1Yyrk_qSNBb-10">
          <mxGeometry x="937" y="10" width="220" height="55" as="geometry" />
        </mxCell>
        <mxCell id="Y4bff-1Hk1Yyrk_qSNBb-34" value="" style="edgeStyle=orthogonalEdgeStyle;rounded=0;orthogonalLoop=1;jettySize=auto;html=1;" edge="1" parent="1" source="Y4bff-1Hk1Yyrk_qSNBb-35">
          <mxGeometry relative="1" as="geometry">
            <mxPoint x="107" y="193" as="targetPoint" />
            <Array as="points" />
          </mxGeometry>
        </mxCell>
        <mxCell id="Y4bff-1Hk1Yyrk_qSNBb-35" value="" style="sketch=0;outlineConnect=0;fontColor=#232F3E;gradientColor=none;fillColor=#DD344C;strokeColor=none;dashed=0;verticalLabelPosition=bottom;verticalAlign=top;align=center;html=1;fontSize=12;fontStyle=0;aspect=fixed;pointerEvents=1;shape=mxgraph.aws4.role;" vertex="1" parent="1">
          <mxGeometry x="127.05000000000001" y="183" width="35.45" height="20" as="geometry" />
        </mxCell>
      </root>
    </mxGraphModel>
  </diagram>
</mxfile>
